<svg width="30" height="29" viewBox="0 0 30 29" fill="none" xmlns="http://www.w3.org/2000/svg">
<path d="M26.1667 6.74999H22.9875C23.1479 6.29791 23.25 5.80207 23.25 5.29166C23.25 2.87082 21.2958 0.916656 18.875 0.916656C17.3437 0.916656 16.0167 1.70416 15.2292 2.88541L14.5 3.86249L13.7708 2.87082C12.9833 1.70416 11.6562 0.916656 10.125 0.916656C7.70416 0.916656 5.74999 2.87082 5.74999 5.29166C5.74999 5.80207 5.85207 6.29791 6.01249 6.74999H2.83332C1.21457 6.74999 -0.0687602 8.04791 -0.0687602 9.66666L-0.0833435 25.7083C-0.0833435 27.3271 1.21457 28.625 2.83332 28.625H26.1667C27.7854 28.625 29.0833 27.3271 29.0833 25.7083V9.66666C29.0833 8.04791 27.7854 6.74999 26.1667 6.74999ZM18.875 3.83332C19.6771 3.83332 20.3333 4.48957 20.3333 5.29166C20.3333 6.09374 19.6771 6.74999 18.875 6.74999C18.0729 6.74999 17.4167 6.09374 17.4167 5.29166C17.4167 4.48957 18.0729 3.83332 18.875 3.83332ZM10.125 3.83332C10.9271 3.83332 11.5833 4.48957 11.5833 5.29166C11.5833 6.09374 10.9271 6.74999 10.125 6.74999C9.32291 6.74999 8.66666 6.09374 8.66666 5.29166C8.66666 4.48957 9.32291 3.83332 10.125 3.83332ZM26.1667 25.7083H2.83332V22.7917H26.1667V25.7083ZM26.1667 18.4167H2.83332V9.66666H10.2417L7.20832 13.7937L9.57082 15.5L14.5 8.79166L19.4292 15.5L21.7917 13.7937L18.7583 9.66666H26.1667V18.4167Z" fill="white"/>
</svg>
