<svg width="730" height="730" viewBox="0 0 730 730" fill="none" xmlns="http://www.w3.org/2000/svg">
<circle cx="365" cy="365" r="364.5" stroke="#E10914"/>
<path d="M261.152 461.192C260.181 461.192 259.397 461.619 258.8 462.472C258.213 463.325 257.92 464.493 257.92 465.976C257.92 467.459 258.219 468.621 258.816 469.464C259.413 470.307 260.16 470.728 261.056 470.728C261.963 470.728 262.592 470.499 262.944 470.04C263.307 469.571 263.488 468.888 263.488 467.992V467.352C263.488 467.224 263.413 467.16 263.264 467.16H262.192V466.872H265.456V467.16H265.024C264.875 467.16 264.8 467.224 264.8 467.352V467.928C264.8 468.877 264.459 469.661 263.776 470.28C263.093 470.888 262.219 471.192 261.152 471.192C259.808 471.192 258.704 470.728 257.84 469.8C256.987 468.872 256.56 467.597 256.56 465.976C256.56 464.344 256.981 463.064 257.824 462.136C258.677 461.197 259.787 460.728 261.152 460.728C261.845 460.728 262.539 460.904 263.232 461.256C263.456 461.373 263.616 461.432 263.712 461.432C263.872 461.432 263.957 461.32 263.968 461.096L263.984 460.824H264.288V463.592H264C263.904 462.771 263.595 462.168 263.072 461.784C262.56 461.389 261.92 461.192 261.152 461.192ZM267.149 470.488V464.6C267.149 464.451 267.074 464.376 266.925 464.376H266.173V464.088H266.957C267.597 464.088 268.045 464.056 268.301 463.992V470.52C268.301 470.648 268.376 470.712 268.525 470.712H269.277V471H266.173V470.712H266.925C267.074 470.712 267.149 470.637 267.149 470.488ZM267.181 462.328C267.042 462.179 266.973 461.997 266.973 461.784C266.973 461.571 267.042 461.395 267.181 461.256C267.33 461.107 267.512 461.032 267.725 461.032C267.938 461.032 268.114 461.107 268.253 461.256C268.402 461.395 268.477 461.571 268.477 461.784C268.477 461.997 268.402 462.179 268.253 462.328C268.114 462.467 267.938 462.536 267.725 462.536C267.512 462.536 267.33 462.467 267.181 462.328ZM271.958 462.392H272.198V464.088H273.798V464.376H272.198V469.8C272.198 470.376 272.358 470.664 272.678 470.664C272.827 470.664 272.955 470.595 273.062 470.456C273.179 470.317 273.238 470.157 273.238 469.976C273.238 469.795 273.222 469.624 273.19 469.464L273.494 469.416C273.537 469.576 273.558 469.752 273.558 469.944C273.558 470.328 273.441 470.632 273.206 470.856C272.982 471.08 272.683 471.192 272.31 471.192C271.937 471.192 271.633 471.043 271.398 470.744C271.163 470.435 271.046 469.976 271.046 469.368V464.6C271.046 464.451 270.971 464.376 270.822 464.376H270.07V464.088H270.854C271.195 464.088 271.563 463.523 271.958 462.392ZM281.117 466.328V470.52C281.117 470.648 281.192 470.712 281.341 470.712H282.093V471H279.213V470.712H279.741C279.89 470.712 279.965 470.648 279.965 470.52V466.12C279.965 465.576 279.842 465.176 279.597 464.92C279.362 464.653 279.048 464.52 278.653 464.52C278.098 464.52 277.64 464.851 277.277 465.512C276.914 466.163 276.733 467.101 276.733 468.328V470.488C276.733 470.637 276.808 470.712 276.957 470.712H277.485V471H274.605V470.712H275.357C275.506 470.712 275.581 470.648 275.581 470.52V461.144C275.581 460.995 275.506 460.92 275.357 460.92H274.605V460.632H275.389C276.029 460.632 276.477 460.6 276.733 460.536V466.168C277.096 464.653 277.896 463.896 279.133 463.896C279.688 463.896 280.157 464.099 280.541 464.504C280.925 464.899 281.117 465.507 281.117 466.328ZM289.41 463.992V470.488C289.41 470.637 289.485 470.712 289.634 470.712H290.386V471H289.602C288.962 471 288.514 471.032 288.258 471.096V468.936C287.895 470.44 287.095 471.192 285.858 471.192C285.303 471.192 284.834 470.995 284.45 470.6C284.066 470.195 283.874 469.581 283.874 468.76V464.6C283.874 464.451 283.799 464.376 283.65 464.376H282.898V464.088H283.682C284.322 464.088 284.77 464.056 285.026 463.992V468.968C285.026 469.512 285.143 469.917 285.378 470.184C285.623 470.44 285.943 470.568 286.338 470.568C286.903 470.568 287.362 470.227 287.714 469.544C288.077 468.851 288.258 467.859 288.258 466.568V464.6C288.258 464.451 288.183 464.376 288.034 464.376H287.282V464.088H288.066C288.706 464.088 289.154 464.056 289.41 463.992ZM297.259 470.216C296.683 470.867 295.926 471.192 294.987 471.192C294.049 471.192 293.265 470.84 292.635 470.136L292.507 471.128H292.235V461.144C292.235 460.995 292.161 460.92 292.011 460.92H291.259V460.632H292.043C292.683 460.632 293.131 460.6 293.387 460.536V466.232C293.569 465.464 293.857 464.883 294.251 464.488C294.657 464.093 295.105 463.896 295.595 463.896C296.267 463.896 296.859 464.232 297.371 464.904C297.883 465.576 298.139 466.467 298.139 467.576C298.139 468.685 297.846 469.565 297.259 470.216ZM295.355 464.504C294.822 464.504 294.358 464.835 293.963 465.496C293.579 466.157 293.387 467.112 293.387 468.36V470.344C293.835 470.643 294.342 470.792 294.907 470.792C295.483 470.792 295.963 470.509 296.347 469.944C296.731 469.379 296.923 468.6 296.923 467.608C296.923 466.616 296.769 465.853 296.459 465.32C296.15 464.776 295.782 464.504 295.355 464.504ZM299.677 470.936C299.507 470.755 299.421 470.541 299.421 470.296C299.421 470.051 299.507 469.843 299.677 469.672C299.859 469.491 300.072 469.4 300.317 469.4C300.563 469.4 300.771 469.491 300.941 469.672C301.123 469.843 301.213 470.051 301.213 470.296C301.213 470.541 301.123 470.755 300.941 470.936C300.771 471.107 300.563 471.192 300.317 471.192C300.072 471.192 299.859 471.107 299.677 470.936ZM299.677 465.624C299.507 465.443 299.421 465.229 299.421 464.984C299.421 464.739 299.507 464.531 299.677 464.36C299.859 464.179 300.072 464.088 300.317 464.088C300.563 464.088 300.771 464.179 300.941 464.36C301.123 464.531 301.213 464.739 301.213 464.984C301.213 465.229 301.123 465.443 300.941 465.624C300.771 465.795 300.563 465.88 300.317 465.88C300.072 465.88 299.859 465.795 299.677 465.624ZM312.851 466.328V470.52C312.851 470.648 312.926 470.712 313.075 470.712H313.827V471H310.947V470.712H311.475C311.625 470.712 311.699 470.648 311.699 470.52V466.12C311.699 465.576 311.577 465.176 311.331 464.92C311.097 464.653 310.782 464.52 310.387 464.52C309.833 464.52 309.374 464.851 309.011 465.512C308.649 466.163 308.467 467.101 308.467 468.328V470.488C308.467 470.637 308.542 470.712 308.691 470.712H309.219V471H306.339V470.712H307.091C307.241 470.712 307.315 470.648 307.315 470.52V461.144C307.315 460.995 307.241 460.92 307.091 460.92H306.339V460.632H307.123C307.763 460.632 308.211 460.6 308.467 460.536V466.168C308.83 464.653 309.63 463.896 310.867 463.896C311.422 463.896 311.891 464.099 312.275 464.504C312.659 464.899 312.851 465.507 312.851 466.328ZM316.521 462.392H316.761V464.088H318.361V464.376H316.761V469.8C316.761 470.376 316.921 470.664 317.241 470.664C317.39 470.664 317.518 470.595 317.625 470.456C317.742 470.317 317.801 470.157 317.801 469.976C317.801 469.795 317.785 469.624 317.753 469.464L318.057 469.416C318.099 469.576 318.121 469.752 318.121 469.944C318.121 470.328 318.003 470.632 317.769 470.856C317.545 471.08 317.246 471.192 316.873 471.192C316.499 471.192 316.195 471.043 315.961 470.744C315.726 470.435 315.609 469.976 315.609 469.368V464.6C315.609 464.451 315.534 464.376 315.385 464.376H314.633V464.088H315.417C315.758 464.088 316.126 463.523 316.521 462.392ZM320.896 462.392H321.136V464.088H322.736V464.376H321.136V469.8C321.136 470.376 321.296 470.664 321.616 470.664C321.765 470.664 321.893 470.595 322 470.456C322.117 470.317 322.176 470.157 322.176 469.976C322.176 469.795 322.16 469.624 322.128 469.464L322.432 469.416C322.474 469.576 322.496 469.752 322.496 469.944C322.496 470.328 322.378 470.632 322.144 470.856C321.92 471.08 321.621 471.192 321.248 471.192C320.874 471.192 320.57 471.043 320.336 470.744C320.101 470.435 319.984 469.976 319.984 469.368V464.6C319.984 464.451 319.909 464.376 319.76 464.376H319.008V464.088H319.792C320.133 464.088 320.501 463.523 320.896 462.392ZM324.519 473.944V464.6C324.519 464.451 324.444 464.376 324.295 464.376H323.543V464.088H324.327C324.967 464.088 325.415 464.056 325.671 463.992V466.232C325.852 465.464 326.14 464.883 326.535 464.488C326.94 464.093 327.388 463.896 327.879 463.896C328.551 463.896 329.143 464.232 329.655 464.904C330.167 465.576 330.423 466.467 330.423 467.576C330.423 468.685 330.129 469.565 329.543 470.216C328.967 470.867 328.209 471.192 327.271 471.192C326.684 471.192 326.151 471.048 325.671 470.76V473.944C325.671 474.093 325.745 474.168 325.895 474.168H326.967V474.456H323.543V474.168H324.295C324.444 474.168 324.519 474.093 324.519 473.944ZM329.207 467.608C329.207 466.616 329.052 465.853 328.743 465.32C328.433 464.776 328.039 464.504 327.559 464.504C327.089 464.504 326.657 464.819 326.263 465.448C325.868 466.077 325.671 466.984 325.671 468.168V470.328C326.14 470.637 326.652 470.792 327.207 470.792C327.772 470.792 328.247 470.509 328.631 469.944C329.015 469.379 329.207 468.6 329.207 467.608ZM333.783 466.664L335.447 467.288C335.841 467.437 336.14 467.667 336.343 467.976C336.556 468.275 336.663 468.611 336.663 468.984C336.663 469.56 336.433 470.072 335.975 470.52C335.516 470.968 334.897 471.192 334.119 471.192C333.351 471.192 332.625 471.048 331.943 470.76C332.007 470.504 332.039 470.056 332.039 469.416V468.776H332.327L332.439 469.608C332.535 470.408 333.095 470.808 334.119 470.808C334.577 470.808 334.956 470.669 335.255 470.392C335.564 470.104 335.719 469.779 335.719 469.416C335.719 468.915 335.415 468.552 334.807 468.328L333.143 467.704C332.769 467.565 332.487 467.347 332.295 467.048C332.103 466.749 332.007 466.413 332.007 466.04C332.007 465.475 332.209 464.979 332.615 464.552C333.02 464.115 333.527 463.896 334.135 463.896C334.753 463.896 335.447 464.04 336.215 464.328C336.151 464.584 336.119 465.032 336.119 465.672V466.312H335.831L335.719 465.48C335.633 464.712 335.148 464.328 334.263 464.328C333.868 464.328 333.543 464.451 333.287 464.696C333.031 464.941 332.903 465.229 332.903 465.56C332.903 466.072 333.196 466.44 333.783 466.664ZM338.271 470.936C338.1 470.755 338.015 470.541 338.015 470.296C338.015 470.051 338.1 469.843 338.271 469.672C338.452 469.491 338.666 469.4 338.911 469.4C339.156 469.4 339.364 469.491 339.535 469.672C339.716 469.843 339.807 470.051 339.807 470.296C339.807 470.541 339.716 470.755 339.535 470.936C339.364 471.107 339.156 471.192 338.911 471.192C338.666 471.192 338.452 471.107 338.271 470.936ZM338.271 465.624C338.1 465.443 338.015 465.229 338.015 464.984C338.015 464.739 338.1 464.531 338.271 464.36C338.452 464.179 338.666 464.088 338.911 464.088C339.156 464.088 339.364 464.179 339.535 464.36C339.716 464.531 339.807 464.739 339.807 464.984C339.807 465.229 339.716 465.443 339.535 465.624C339.364 465.795 339.156 465.88 338.911 465.88C338.666 465.88 338.452 465.795 338.271 465.624ZM341.317 472.184H340.693L344.677 460.632H345.317L341.317 472.184ZM346.427 472.184H345.803L349.786 460.632H350.427L346.427 472.184ZM357.52 464.28L357.392 464.264C357.296 463.603 357.056 463.272 356.672 463.272C356.48 463.272 356.304 463.373 356.144 463.576C355.984 463.779 355.888 464.045 355.856 464.376C356.432 464.813 356.72 465.421 356.72 466.2C356.72 466.979 356.491 467.581 356.032 468.008C355.584 468.424 354.997 468.632 354.272 468.632H352.848C352.581 468.632 352.373 468.707 352.224 468.856C352.085 469.005 352.016 469.181 352.016 469.384C352.016 469.587 352.085 469.763 352.224 469.912C352.373 470.061 352.581 470.136 352.848 470.136H355.52C356.16 470.136 356.64 470.285 356.96 470.584C357.291 470.872 357.456 471.24 357.456 471.688C357.456 472.403 357.12 473.075 356.448 473.704C355.776 474.333 354.939 474.648 353.936 474.648C353.168 474.648 352.544 474.467 352.064 474.104C351.584 473.741 351.344 473.283 351.344 472.728C351.344 472.173 351.637 471.64 352.224 471.128C351.947 471.053 351.723 470.899 351.552 470.664C351.392 470.419 351.312 470.12 351.312 469.768C351.312 469.416 351.44 469.101 351.696 468.824C351.952 468.536 352.336 468.392 352.848 468.392H353.088C352.256 468.008 351.84 467.299 351.84 466.264C351.84 465.528 352.064 464.952 352.512 464.536C352.96 464.109 353.547 463.896 354.272 463.896C354.752 463.896 355.173 463.992 355.536 464.184C355.611 463.757 355.76 463.405 355.984 463.128C356.219 462.851 356.523 462.712 356.896 462.712C357.28 462.712 357.595 462.813 357.84 463.016C358.096 463.219 358.224 463.437 358.224 463.672C358.224 464.077 357.989 464.28 357.52 464.28ZM355.52 471.192H352.72C352.379 471.587 352.208 472.035 352.208 472.536C352.208 473.037 352.357 473.448 352.656 473.768C352.955 474.099 353.435 474.264 354.096 474.264C354.768 474.264 355.376 474.029 355.92 473.56C356.464 473.091 356.736 472.605 356.736 472.104C356.736 471.837 356.635 471.619 356.432 471.448C356.229 471.277 355.925 471.192 355.52 471.192ZM353.344 464.792C353.099 465.155 352.976 465.645 352.976 466.264C352.976 466.883 353.099 467.373 353.344 467.736C353.589 468.099 353.899 468.28 354.272 468.28C354.645 468.28 354.955 468.099 355.2 467.736C355.456 467.373 355.584 466.883 355.584 466.264C355.584 465.645 355.456 465.155 355.2 464.792C354.955 464.429 354.645 464.248 354.272 464.248C353.899 464.248 353.589 464.429 353.344 464.792ZM359.634 470.488V464.6C359.634 464.451 359.559 464.376 359.41 464.376H358.658V464.088H359.442C360.082 464.088 360.53 464.056 360.786 463.992V470.52C360.786 470.648 360.86 470.712 361.01 470.712H361.762V471H358.658V470.712H359.41C359.559 470.712 359.634 470.637 359.634 470.488ZM359.666 462.328C359.527 462.179 359.458 461.997 359.458 461.784C359.458 461.571 359.527 461.395 359.666 461.256C359.815 461.107 359.996 461.032 360.21 461.032C360.423 461.032 360.599 461.107 360.738 461.256C360.887 461.395 360.962 461.571 360.962 461.784C360.962 461.997 360.887 462.179 360.738 462.328C360.599 462.467 360.423 462.536 360.21 462.536C359.996 462.536 359.815 462.467 359.666 462.328ZM364.442 462.392H364.682V464.088H366.282V464.376H364.682V469.8C364.682 470.376 364.842 470.664 365.162 470.664C365.312 470.664 365.44 470.595 365.546 470.456C365.664 470.317 365.722 470.157 365.722 469.976C365.722 469.795 365.706 469.624 365.674 469.464L365.978 469.416C366.021 469.576 366.042 469.752 366.042 469.944C366.042 470.328 365.925 470.632 365.69 470.856C365.466 471.08 365.168 471.192 364.794 471.192C364.421 471.192 364.117 471.043 363.882 470.744C363.648 470.435 363.53 469.976 363.53 469.368V464.6C363.53 464.451 363.456 464.376 363.306 464.376H362.554V464.088H363.338C363.68 464.088 364.048 463.523 364.442 462.392ZM373.601 466.328V470.52C373.601 470.648 373.676 470.712 373.825 470.712H374.577V471H371.697V470.712H372.225C372.375 470.712 372.449 470.648 372.449 470.52V466.12C372.449 465.576 372.327 465.176 372.081 464.92C371.847 464.653 371.532 464.52 371.137 464.52C370.583 464.52 370.124 464.851 369.761 465.512C369.399 466.163 369.217 467.101 369.217 468.328V470.488C369.217 470.637 369.292 470.712 369.441 470.712H369.969V471H367.089V470.712H367.841C367.991 470.712 368.065 470.648 368.065 470.52V461.144C368.065 460.995 367.991 460.92 367.841 460.92H367.089V460.632H367.873C368.513 460.632 368.961 460.6 369.217 460.536V466.168C369.58 464.653 370.38 463.896 371.617 463.896C372.172 463.896 372.641 464.099 373.025 464.504C373.409 464.899 373.601 465.507 373.601 466.328ZM381.895 463.992V470.488C381.895 470.637 381.969 470.712 382.119 470.712H382.871V471H382.087C381.447 471 380.999 471.032 380.743 471.096V468.936C380.38 470.44 379.58 471.192 378.343 471.192C377.788 471.192 377.319 470.995 376.935 470.6C376.551 470.195 376.359 469.581 376.359 468.76V464.6C376.359 464.451 376.284 464.376 376.135 464.376H375.383V464.088H376.167C376.807 464.088 377.255 464.056 377.511 463.992V468.968C377.511 469.512 377.628 469.917 377.863 470.184C378.108 470.44 378.428 470.568 378.823 470.568C379.388 470.568 379.847 470.227 380.199 469.544C380.561 468.851 380.743 467.859 380.743 466.568V464.6C380.743 464.451 380.668 464.376 380.519 464.376H379.766V464.088H380.551C381.191 464.088 381.639 464.056 381.895 463.992ZM389.744 470.216C389.168 470.867 388.41 471.192 387.472 471.192C386.533 471.192 385.749 470.84 385.12 470.136L384.992 471.128H384.72V461.144C384.72 460.995 384.645 460.92 384.496 460.92H383.744V460.632H384.528C385.168 460.632 385.616 460.6 385.872 460.536V466.232C386.053 465.464 386.341 464.883 386.736 464.488C387.141 464.093 387.589 463.896 388.08 463.896C388.752 463.896 389.344 464.232 389.856 464.904C390.368 465.576 390.624 466.467 390.624 467.576C390.624 468.685 390.33 469.565 389.744 470.216ZM387.84 464.504C387.306 464.504 386.842 464.835 386.448 465.496C386.064 466.157 385.872 467.112 385.872 468.36V470.344C386.32 470.643 386.826 470.792 387.392 470.792C387.968 470.792 388.448 470.509 388.832 469.944C389.216 469.379 389.408 468.6 389.408 467.608C389.408 466.616 389.253 465.853 388.944 465.32C388.634 464.776 388.266 464.504 387.84 464.504ZM392.162 470.936C391.991 470.755 391.906 470.541 391.906 470.296C391.906 470.051 391.991 469.843 392.162 469.672C392.343 469.491 392.556 469.4 392.802 469.4C393.047 469.4 393.255 469.491 393.426 469.672C393.607 469.843 393.698 470.051 393.698 470.296C393.698 470.541 393.607 470.755 393.426 470.936C393.255 471.107 393.047 471.192 392.802 471.192C392.556 471.192 392.343 471.107 392.162 470.936ZM398.248 464.28C397.64 464.28 397.144 464.573 396.76 465.16C396.386 465.736 396.2 466.531 396.2 467.544C396.2 468.557 396.381 469.357 396.744 469.944C397.117 470.52 397.592 470.808 398.168 470.808C398.754 470.808 399.234 470.659 399.608 470.36C399.981 470.061 400.237 469.635 400.376 469.08L400.68 469.144C400.552 469.795 400.258 470.301 399.8 470.664C399.341 471.016 398.813 471.192 398.216 471.192C397.288 471.192 396.514 470.867 395.896 470.216C395.288 469.565 394.984 468.675 394.984 467.544C394.984 466.413 395.293 465.523 395.912 464.872C396.53 464.221 397.309 463.896 398.248 463.896C398.973 463.896 399.517 464.061 399.88 464.392C400.242 464.712 400.424 465.144 400.424 465.688C400.424 466.392 400.226 466.744 399.832 466.744C399.512 466.744 399.256 466.659 399.064 466.488C399.213 466.168 399.288 465.837 399.288 465.496C399.288 465.144 399.197 464.856 399.016 464.632C398.845 464.397 398.589 464.28 398.248 464.28ZM402.614 470.216C402.017 469.565 401.718 468.675 401.718 467.544C401.718 466.413 402.017 465.523 402.614 464.872C403.211 464.221 403.99 463.896 404.95 463.896C405.91 463.896 406.689 464.221 407.286 464.872C407.894 465.523 408.198 466.413 408.198 467.544C408.198 468.675 407.894 469.565 407.286 470.216C406.689 470.867 405.91 471.192 404.95 471.192C403.99 471.192 403.211 470.867 402.614 470.216ZM403.51 465.144C403.126 465.731 402.934 466.531 402.934 467.544C402.934 468.557 403.126 469.363 403.51 469.96C403.894 470.547 404.374 470.84 404.95 470.84C405.526 470.84 406.006 470.547 406.39 469.96C406.785 469.363 406.982 468.557 406.982 467.544C406.982 466.531 406.785 465.731 406.39 465.144C406.006 464.547 405.526 464.248 404.95 464.248C404.374 464.248 403.894 464.547 403.51 465.144ZM420.14 466.328V470.52C420.14 470.648 420.214 470.712 420.364 470.712H421.116V471H418.236V470.712H418.764C418.913 470.712 418.988 470.648 418.988 470.52V466.12C418.988 465.576 418.876 465.176 418.652 464.92C418.428 464.653 418.124 464.52 417.74 464.52C417.206 464.52 416.769 464.867 416.428 465.56C416.086 466.243 415.916 467.229 415.916 468.52V470.488C415.916 470.637 415.99 470.712 416.14 470.712H416.892V471H414.012V470.712H414.54C414.689 470.712 414.764 470.648 414.764 470.52V466.12C414.764 465.576 414.652 465.176 414.428 464.92C414.204 464.653 413.9 464.52 413.516 464.52C412.982 464.52 412.545 464.867 412.204 465.56C411.862 466.243 411.692 467.229 411.692 468.52V470.488C411.692 470.637 411.766 470.712 411.916 470.712H412.444V471H409.564V470.712H410.316C410.465 470.712 410.54 470.648 410.54 470.52V464.6C410.54 464.451 410.465 464.376 410.316 464.376H409.564V464.088H410.348C410.988 464.088 411.436 464.056 411.692 463.992V466.136C412.044 464.643 412.801 463.896 413.964 463.896C414.476 463.896 414.918 464.083 415.292 464.456C415.676 464.829 415.884 465.395 415.916 466.152C416.268 464.648 417.025 463.896 418.188 463.896C418.721 463.896 419.18 464.099 419.564 464.504C419.948 464.899 420.14 465.507 420.14 466.328ZM422.536 472.184H421.912L425.896 460.632H426.536L422.536 472.184ZM428.237 470.488V461.144C428.237 460.995 428.163 460.92 428.013 460.92H427.261V460.632H428.045C428.685 460.632 429.133 460.6 429.389 460.536V470.488C429.389 470.637 429.464 470.712 429.613 470.712H430.365V471H427.261V470.712H428.013C428.163 470.712 428.237 470.637 428.237 470.488ZM437.676 463.992V470.488C437.676 470.637 437.75 470.712 437.9 470.712H438.652V471H437.868C437.228 471 436.78 471.032 436.524 471.096V468.936C436.161 470.44 435.361 471.192 434.124 471.192C433.569 471.192 433.1 470.995 432.716 470.6C432.332 470.195 432.14 469.581 432.14 468.76V464.6C432.14 464.451 432.065 464.376 431.916 464.376H431.164V464.088H431.948C432.588 464.088 433.036 464.056 433.292 463.992V468.968C433.292 469.512 433.409 469.917 433.644 470.184C433.889 470.44 434.209 470.568 434.604 470.568C435.169 470.568 435.628 470.227 435.98 469.544C436.342 468.851 436.524 467.859 436.524 466.568V464.6C436.524 464.451 436.449 464.376 436.3 464.376H435.548V464.088H436.332C436.972 464.088 437.42 464.056 437.676 463.992ZM441.845 466.664L443.509 467.288C443.904 467.437 444.202 467.667 444.405 467.976C444.618 468.275 444.725 468.611 444.725 468.984C444.725 469.56 444.496 470.072 444.037 470.52C443.578 470.968 442.96 471.192 442.181 471.192C441.413 471.192 440.688 471.048 440.005 470.76C440.069 470.504 440.101 470.056 440.101 469.416V468.776H440.389L440.501 469.608C440.597 470.408 441.157 470.808 442.181 470.808C442.64 470.808 443.018 470.669 443.317 470.392C443.626 470.104 443.781 469.779 443.781 469.416C443.781 468.915 443.477 468.552 442.869 468.328L441.205 467.704C440.832 467.565 440.549 467.347 440.357 467.048C440.165 466.749 440.069 466.413 440.069 466.04C440.069 465.475 440.272 464.979 440.677 464.552C441.082 464.115 441.589 463.896 442.197 463.896C442.816 463.896 443.509 464.04 444.277 464.328C444.213 464.584 444.181 465.032 444.181 465.672V466.312H443.893L443.781 465.48C443.696 464.712 443.21 464.328 442.325 464.328C441.93 464.328 441.605 464.451 441.349 464.696C441.093 464.941 440.965 465.229 440.965 465.56C440.965 466.072 441.258 466.44 441.845 466.664ZM446.078 467.544C446.078 466.435 446.376 465.549 446.974 464.888C447.571 464.227 448.323 463.896 449.23 463.896C450.147 463.896 450.926 464.248 451.566 464.952L451.726 463.96H451.982V473.944C451.982 474.093 452.056 474.168 452.206 474.168H452.958V474.456H452.174C451.534 474.456 451.086 474.488 450.83 474.552V469.432C450.584 470.008 450.264 470.445 449.87 470.744C449.475 471.043 449.054 471.192 448.606 471.192C447.923 471.192 447.331 470.861 446.83 470.2C446.328 469.539 446.078 468.653 446.078 467.544ZM447.294 467.512C447.294 468.493 447.454 469.251 447.774 469.784C448.104 470.317 448.478 470.584 448.894 470.584C449.32 470.584 449.704 470.413 450.046 470.072C450.387 469.72 450.648 469.213 450.83 468.552V464.808C450.36 464.52 449.843 464.376 449.278 464.376C448.723 464.376 448.254 464.653 447.87 465.208C447.486 465.752 447.294 466.52 447.294 467.512ZM460.191 463.992V470.488C460.191 470.637 460.266 470.712 460.415 470.712H461.167V471H460.383C459.743 471 459.295 471.032 459.039 471.096V468.936C458.677 470.44 457.877 471.192 456.639 471.192C456.085 471.192 455.615 470.995 455.231 470.6C454.847 470.195 454.655 469.581 454.655 468.76V464.6C454.655 464.451 454.581 464.376 454.431 464.376H453.679V464.088H454.463C455.103 464.088 455.551 464.056 455.807 463.992V468.968C455.807 469.512 455.925 469.917 456.159 470.184C456.405 470.44 456.725 470.568 457.119 470.568C457.685 470.568 458.143 470.227 458.495 469.544C458.858 468.851 459.039 467.859 459.039 466.568V464.6C459.039 464.451 458.965 464.376 458.815 464.376H458.063V464.088H458.847C459.487 464.088 459.935 464.056 460.191 463.992ZM465.513 463.896C466.249 463.896 466.83 464.141 467.257 464.632C467.683 465.123 467.897 465.843 467.897 466.792C467.897 466.984 467.886 467.197 467.865 467.432H463.497V467.544C463.497 468.557 463.678 469.357 464.041 469.944C464.414 470.52 464.889 470.808 465.465 470.808C466.051 470.808 466.531 470.659 466.905 470.36C467.278 470.061 467.534 469.635 467.673 469.08L467.977 469.144C467.849 469.795 467.555 470.301 467.097 470.664C466.638 471.016 466.11 471.192 465.513 471.192C464.585 471.192 463.811 470.867 463.193 470.216C462.585 469.565 462.281 468.68 462.281 467.56C462.281 466.429 462.59 465.539 463.209 464.888C463.827 464.227 464.595 463.896 465.513 463.896ZM466.793 466.248C466.793 464.936 466.302 464.28 465.321 464.28C464.83 464.28 464.409 464.547 464.057 465.08C463.715 465.613 463.534 466.291 463.513 467.112H466.729C466.771 466.749 466.793 466.461 466.793 466.248ZM471.423 466.664L473.087 467.288C473.482 467.437 473.78 467.667 473.983 467.976C474.196 468.275 474.303 468.611 474.303 468.984C474.303 469.56 474.074 470.072 473.615 470.52C473.156 470.968 472.538 471.192 471.759 471.192C470.991 471.192 470.266 471.048 469.583 470.76C469.647 470.504 469.679 470.056 469.679 469.416V468.776H469.967L470.079 469.608C470.175 470.408 470.735 470.808 471.759 470.808C472.218 470.808 472.596 470.669 472.895 470.392C473.204 470.104 473.359 469.779 473.359 469.416C473.359 468.915 473.055 468.552 472.447 468.328L470.783 467.704C470.41 467.565 470.127 467.347 469.935 467.048C469.743 466.749 469.647 466.413 469.647 466.04C469.647 465.475 469.85 464.979 470.255 464.552C470.66 464.115 471.167 463.896 471.775 463.896C472.394 463.896 473.087 464.04 473.855 464.328C473.791 464.584 473.759 465.032 473.759 465.672V466.312H473.471L473.359 465.48C473.274 464.712 472.788 464.328 471.903 464.328C471.508 464.328 471.183 464.451 470.927 464.696C470.671 464.941 470.543 465.229 470.543 465.56C470.543 466.072 470.836 466.44 471.423 466.664Z" fill="white"/>
<path d="M91.55 342.1C89.55 340.7 87.85 339.3 86.45 337.9C85.15 336.4 84.05 334.8 83.15 333.1C82.25 331.4 81.5 329.55 80.9 327.55C80.3 325.55 79.8 323.35 79.4 320.95C78 319.85 75.75 319.15 72.65 318.85C69.55 318.55 66.4 318.4 63.2 318.4C60.6 318.4 58.35 318.45 56.45 318.55C54.55 318.65 52.9 318.7 51.5 318.7C50.6 321.2 50 325.5 49.7 331.6C49.4 337.6 49.25 344.5 49.25 352.3C49.25 356.5 49.25 360.8 49.25 365.2C49.35 369.6 49.4 373.95 49.4 378.25C49.5 382.55 49.55 386.75 49.55 390.85C49.65 394.85 49.7 398.6 49.7 402.1C52.7 402.8 55.15 403.45 57.05 404.05C58.95 404.55 60.8 405 62.6 405.4C64.4 405.7 66.45 406 68.75 406.3C71.05 406.5 74.1 406.7 77.9 406.9C78.1 406.1 78.2 404.4 78.2 401.8C78.3 399.1 78.35 396 78.35 392.5C78.35 388.6 78.3 385.35 78.2 382.75C78.2 380.15 78.1 377.55 77.9 374.95C76.6 374.95 75.5 374.85 74.6 374.65C73.8 374.35 72.8 374.05 71.6 373.75C70.5 373.45 69 373.15 67.1 372.85C65.3 372.55 62.85 372.3 59.75 372.1C60.15 371.4 60.65 370.5 61.25 369.4C61.85 368.2 62.45 366.95 63.05 365.65C63.65 364.35 64.15 363.15 64.55 362.05C65.05 360.85 65.4 359.85 65.6 359.05C69.4 359.85 73.1 360.45 76.7 360.85C80.4 361.25 83.9 361.45 87.2 361.45C90.6 361.45 93.7 361.25 96.5 360.85C99.3 360.35 101.65 359.55 103.55 358.45C103.25 359.25 102.7 360.4 101.9 361.9C101.2 363.3 100.45 364.85 99.65 366.55C98.85 368.15 98.15 369.75 97.55 371.35C96.95 372.95 96.65 374.35 96.65 375.55C96.95 379.75 97.2 383.8 97.4 387.7C97.6 391.6 97.8 395.15 98 398.35C98.3 401.45 98.55 404.05 98.75 406.15C98.95 408.25 99.2 409.6 99.5 410.2C94.8 411.3 90.35 413 86.15 415.3C81.95 417.7 77.05 421.25 71.45 425.95C67.05 423.25 62.35 420.95 57.35 419.05C52.35 417.15 47.4 415.5 42.5 414.1C37.7 412.6 33.05 411.3 28.55 410.2C24.15 409.1 20.3 408 17 406.9C18.6 406.5 19.95 405.55 21.05 404.05C22.25 402.45 23.2 400.5 23.9 398.2C24.7 395.9 25.3 393.35 25.7 390.55C26.1 387.65 26.3 384.75 26.3 381.85C26.3 377.35 25.8 373.05 24.8 368.95C23.9 364.85 22.6 361.75 20.9 359.65C22.5 358.05 23.8 355.95 24.8 353.35C25.9 350.65 26.75 347.8 27.35 344.8C27.95 341.7 28.35 338.55 28.55 335.35C28.75 332.15 28.85 329.15 28.85 326.35C28.85 324.05 28.8 322.05 28.7 320.35C28.6 318.65 28.5 317.35 28.4 316.45C26.1 315.65 23.7 314 21.2 311.5C18.8 309 17 306.3 15.8 303.4C22.2 304.1 28.25 304.6 33.95 304.9C39.75 305.1 45.2 305.2 50.3 305.2C61.4 305.2 70.5 304.85 77.6 304.15C84.7 303.45 90.2 303.1 94.1 303.1C94.9 303.1 95.6 303.15 96.2 303.25C96.8 303.25 97.35 303.3 97.85 303.4C97.45 304.3 97 305.85 96.5 308.05C96.1 310.15 95.65 312.55 95.15 315.25C94.65 317.85 94.2 320.65 93.8 323.65C93.4 326.55 93 329.3 92.6 331.9C92.3 334.4 92.05 336.6 91.85 338.5C91.65 340.4 91.55 341.6 91.55 342.1ZM232.155 423.4C226.455 421.4 220.805 419.2 215.205 416.8C209.705 414.5 204.255 411.75 198.855 408.55C197.555 409.85 196.405 410.95 195.405 411.85C194.405 412.75 193.355 413.55 192.255 414.25C191.155 414.85 189.955 415.35 188.655 415.75C187.455 416.25 186.005 416.7 184.305 417.1C185.305 415.9 186.005 414.45 186.405 412.75C186.805 411.05 187.005 409.3 187.005 407.5C187.005 404.6 186.605 401.8 185.805 399.1C185.105 396.3 184.455 393.95 183.855 392.05L180.255 380.65C177.355 384.45 174.455 388.65 171.555 393.25C168.755 397.85 166.305 402.25 164.205 406.45C162.505 404.05 160.205 400.65 157.305 396.25C154.505 391.85 151.355 387.1 147.855 382L145.455 389.8C144.855 391.8 144.355 393.8 143.955 395.8C143.655 397.8 143.505 399.85 143.505 401.95C143.505 405.05 143.905 408.1 144.705 411.1C145.505 414.1 146.805 416.9 148.605 419.5C146.605 418.8 144.905 418.1 143.505 417.4C142.205 416.7 140.955 415.9 139.755 415C138.655 414.1 137.505 413.15 136.305 412.15C135.205 411.05 133.905 409.8 132.405 408.4C128.205 412.4 124.055 415.2 119.955 416.8C115.855 418.5 111.255 419.4 106.155 419.5C108.055 419.2 110.055 417.95 112.155 415.75C114.255 413.65 116.305 410.9 118.305 407.5C120.305 404 122.205 400.05 124.005 395.65C125.905 391.25 127.555 386.6 128.955 381.7L133.755 364.9C130.255 361.2 126.455 358.05 122.355 355.45C118.255 352.75 114.555 351.4 111.255 351.4C111.055 351.4 110.805 351.4 110.505 351.4C110.205 351.4 109.605 351.45 108.705 351.55L108.555 351.1C112.855 348.9 116.855 347.8 120.555 347.8C123.055 347.8 125.605 348.3 128.205 349.3C130.805 350.2 133.805 351.6 137.205 353.5L145.305 325.75C145.805 324.05 146.155 322.55 146.355 321.25C146.555 319.95 146.655 318.9 146.655 318.1C146.655 316 146.005 314.5 144.705 313.6C143.505 312.7 141.305 312.25 138.105 312.25C136.105 312.25 133.955 312.4 131.655 312.7C129.355 313 126.605 313.45 123.405 314.05C124.005 313.15 125.455 312.1 127.755 310.9C130.055 309.7 132.805 308.55 136.005 307.45C139.305 306.35 142.805 305.45 146.505 304.75C150.305 303.95 153.955 303.55 157.455 303.55C160.055 303.55 162.555 303.85 164.955 304.45C167.355 305.05 169.155 306.1 170.355 307.6C172.155 307.5 174.105 307.25 176.205 306.85C178.305 306.45 180.305 306 182.205 305.5C184.105 304.9 185.805 304.35 187.305 303.85C188.805 303.25 189.805 302.8 190.305 302.5C188.905 304.5 187.855 306.9 187.155 309.7C186.555 312.4 186.255 315.35 186.255 318.55C186.255 322.65 186.705 326.95 187.605 331.45C188.505 335.85 189.555 339.95 190.755 343.75C192.055 347.55 193.405 350.8 194.805 353.5C196.205 356.2 197.405 357.85 198.405 358.45C198.405 364.35 199.405 370.6 201.405 377.2C203.505 383.8 206.155 390.1 209.355 396.1C212.655 402.1 216.305 407.5 220.305 412.3C224.405 417 228.405 420.55 232.305 422.95L232.155 423.4ZM164.055 381.85C165.755 379.55 167.655 377.1 169.755 374.5C171.955 371.8 173.955 369.15 175.755 366.55L164.205 329.05L152.355 367.75C154.355 369.85 156.355 372.2 158.355 374.8C160.455 377.4 162.355 379.75 164.055 381.85ZM310.321 305.65C307.921 307.75 305.271 309.75 302.371 311.65C299.571 313.55 296.621 315.2 293.521 316.6C290.421 318 287.221 319.15 283.921 320.05C280.621 320.85 277.321 321.25 274.021 321.25C272.921 321.25 271.871 321.25 270.871 321.25C269.871 321.25 268.871 321.2 267.871 321.1C267.571 324.1 267.421 327.15 267.421 330.25C267.421 338.75 267.471 347.3 267.571 355.9C267.671 364.5 267.721 373.65 267.721 383.35C267.721 388.55 268.621 393.6 270.421 398.5C272.321 403.3 275.021 406.8 278.521 409C274.321 411 270.771 413.1 267.871 415.3C265.071 417.6 262.571 420.85 260.371 425.05C258.671 420.95 256.021 417.65 252.421 415.15C248.821 412.75 244.771 410.7 240.271 409C242.271 406.1 243.771 402.35 244.771 397.75C245.771 393.05 246.271 388.5 246.271 384.1C246.271 379.8 246.271 376 246.271 372.7C246.271 369.3 246.271 366.15 246.271 363.25C246.371 360.35 246.421 357.55 246.421 354.85C246.521 352.15 246.571 349.25 246.571 346.15C246.671 343.05 246.721 339.65 246.721 335.95C246.721 332.25 246.721 327.9 246.721 322.9C246.721 322.1 246.721 321.35 246.721 320.65C246.721 319.95 246.621 319.2 246.421 318.4C239.821 317.2 233.521 316 227.521 314.8C221.621 313.5 216.221 312.85 211.321 312.85C209.121 312.85 206.771 313.1 204.271 313.6L204.121 313.15C209.521 311.55 213.921 309.6 217.321 307.3C220.821 305 224.321 302.25 227.821 299.05C233.021 300.55 237.421 301.75 241.021 302.65C244.721 303.55 248.121 304.25 251.221 304.75C254.421 305.25 257.521 305.6 260.521 305.8C263.621 305.9 267.121 305.95 271.021 305.95C270.021 304.25 269.321 302.75 268.921 301.45C268.521 300.05 268.271 298.6 268.171 297.1C271.471 299.2 274.521 300.85 277.321 302.05C280.221 303.15 282.971 304 285.571 304.6C288.171 305.1 290.771 305.4 293.371 305.5C295.971 305.6 298.671 305.65 301.471 305.65C303.071 305.65 304.521 305.6 305.821 305.5C307.221 305.4 308.621 305.25 310.021 305.05L310.321 305.65ZM340.784 398.05C342.584 399.05 344.234 399.95 345.734 400.75C347.234 401.55 348.734 402.3 350.234 403C351.834 403.6 353.534 404.15 355.334 404.65C357.134 405.15 359.184 405.6 361.484 406C365.684 403.9 369.034 402.55 371.534 401.95C374.034 401.25 375.684 400.65 376.484 400.15C376.684 390.45 376.834 380.3 376.934 369.7C377.134 359 377.234 348.85 377.234 339.25C377.234 336.75 377.234 334.3 377.234 331.9C377.234 329.4 377.134 327 376.934 324.7C375.134 323.7 373.484 322.8 371.984 322C370.484 321.2 368.934 320.5 367.334 319.9C365.834 319.2 364.184 318.6 362.384 318.1C360.684 317.6 358.684 317.15 356.384 316.75C352.184 318.85 348.784 320.3 346.184 321.1C343.684 321.9 342.034 322.55 341.234 323.05C341.134 325.55 341.034 328.6 340.934 332.2C340.834 335.7 340.734 339.5 340.634 343.6C340.634 347.7 340.634 352 340.634 356.5C340.634 361 340.634 365.4 340.634 369.7C340.634 374.2 340.634 379.05 340.634 384.25C340.734 389.45 340.784 394.05 340.784 398.05ZM313.784 360.7C315.084 359.3 316.234 357.55 317.234 355.45C318.334 353.25 319.284 350.9 320.084 348.4C320.884 345.8 321.484 343.1 321.884 340.3C322.384 337.5 322.634 334.75 322.634 332.05C322.634 327.45 321.934 323.1 320.534 319C319.134 314.9 316.834 311.9 313.634 310C316.734 309.8 320.084 309.4 323.684 308.8C327.384 308.2 331.084 307.45 334.784 306.55C338.484 305.65 342.034 304.7 345.434 303.7C348.834 302.6 351.834 301.45 354.434 300.25C357.734 300.75 361.634 301.6 366.134 302.8C370.734 303.9 375.284 305.05 379.784 306.25C384.284 307.45 388.384 308.55 392.084 309.55C395.884 310.55 398.634 311.1 400.334 311.2C398.934 313.5 397.934 316.4 397.334 319.9C396.734 323.3 396.434 326.85 396.434 330.55C396.434 336.15 397.134 341.75 398.534 347.35C399.934 352.85 401.934 357.35 404.534 360.85C402.034 363.95 399.984 368.2 398.384 373.6C396.784 378.9 395.984 384.4 395.984 390.1C395.984 394.7 396.684 399 398.084 403C399.484 407 401.784 410 404.984 412C401.884 412.2 398.434 412.6 394.634 413.2C390.934 413.8 387.184 414.55 383.384 415.45C379.684 416.35 376.084 417.3 372.584 418.3C369.084 419.4 366.084 420.55 363.584 421.75C360.284 421.35 356.384 420.6 351.884 419.5C347.384 418.4 342.884 417.25 338.384 416.05C333.984 414.85 329.934 413.75 326.234 412.75C322.534 411.65 319.884 411 318.284 410.8C319.684 409.5 320.634 407.4 321.134 404.5C321.734 401.5 322.034 398.1 322.034 394.3C322.034 390.8 321.784 387.15 321.284 383.35C320.884 379.45 320.284 375.9 319.484 372.7C318.784 369.4 317.934 366.65 316.934 364.45C315.934 362.25 314.884 361 313.784 360.7ZM489.495 395.5C488.995 385.6 488.595 376.1 488.295 367C488.095 357.9 487.895 349.85 487.695 342.85C487.595 335.85 487.495 330.25 487.395 326.05C487.395 321.85 487.395 319.7 487.395 319.6C486.895 313.5 483.745 309.3 477.945 307C478.945 307.1 479.895 307.15 480.795 307.15C481.795 307.15 482.795 307.15 483.795 307.15C488.295 307.15 492.395 306.95 496.095 306.55C499.895 306.05 503.345 305.55 506.445 305.05C509.545 304.55 512.345 304.1 514.845 303.7C517.445 303.2 519.845 302.95 522.045 302.95C523.245 302.95 524.395 303.1 525.495 303.4C519.495 307.7 514.845 312.4 511.545 317.5C508.345 322.5 506.745 328.15 506.745 334.45C506.745 341.85 509.195 350.25 514.095 359.65C511.795 365.45 509.895 371.7 508.395 378.4C506.995 385.1 506.295 391.8 506.295 398.5C506.295 401.4 506.395 404.75 506.595 408.55C506.895 412.25 507.395 415.9 508.095 419.5C511.095 422.7 513.745 425.2 516.045 427C518.445 428.8 520.595 430.15 522.495 431.05C524.395 431.95 526.145 432.55 527.745 432.85C529.445 433.15 531.095 433.4 532.695 433.6L528.795 423.7C532.195 425.6 535.595 427.4 538.995 429.1C542.395 430.8 545.895 432.3 549.495 433.6C553.095 434.9 556.845 435.9 560.745 436.6C564.745 437.4 568.995 437.8 573.495 437.8C576.495 437.8 579.595 437.7 582.795 437.5C586.095 437.3 589.545 436.95 593.145 436.45C584.345 439.95 576.045 442.45 568.245 443.95C560.545 445.55 553.245 446.35 546.345 446.35C537.545 446.35 529.395 445.1 521.895 442.6C514.495 440.1 507.595 436.7 501.195 432.4C494.895 428.2 489.095 423.3 483.795 417.7C478.595 412.2 473.795 406.4 469.395 400.3C465.095 394.1 461.195 387.85 457.695 381.55C454.295 375.25 451.245 369.25 448.545 363.55V378.85C448.545 385.05 448.745 390.25 449.145 394.45C449.545 398.65 450.195 402.3 451.095 405.4C451.995 408.5 453.145 411.25 454.545 413.65C455.945 415.95 457.645 418.3 459.645 420.7C457.445 420.1 455.495 419.5 453.795 418.9C452.195 418.3 450.595 417.6 448.995 416.8C447.495 416 445.895 415 444.195 413.8C442.595 412.6 440.695 411.1 438.495 409.3C435.795 414.1 432.195 418.25 427.695 421.75C423.195 425.25 417.145 428.25 409.545 430.75C412.545 427.85 415.345 424.55 417.945 420.85C420.545 417.25 422.795 413.4 424.695 409.3C426.695 405.1 428.245 400.8 429.345 396.4C430.545 392 431.145 387.55 431.145 383.05C431.145 378.85 430.595 374.8 429.495 370.9C428.495 367 426.795 363.25 424.395 359.65C429.295 350.25 431.745 341.85 431.745 334.45C431.745 328.15 430.095 322.5 426.795 317.5C423.595 312.4 418.995 307.7 412.995 303.4C413.995 303.1 415.145 302.95 416.445 302.95C418.445 302.95 420.695 303.2 423.195 303.7C425.795 304.1 428.595 304.55 431.595 305.05C434.695 305.55 437.995 306.05 441.495 306.55C445.095 306.95 448.945 307.15 453.045 307.15C454.045 307.15 454.995 307.15 455.895 307.15C456.895 307.15 457.895 307.1 458.895 307C453.495 309.1 450.395 312.8 449.595 318.1C451.395 322.6 453.545 327.8 456.045 333.7C458.645 339.6 461.495 345.8 464.595 352.3C467.795 358.8 471.245 365.4 474.945 372.1C478.645 378.7 482.495 385 486.495 391L489.495 395.5ZM533.232 415C534.732 414.1 536.032 412.4 537.132 409.9C538.332 407.4 539.332 404.55 540.132 401.35C541.032 398.15 541.682 394.85 542.082 391.45C542.482 387.95 542.682 384.75 542.682 381.85C542.682 377.35 542.182 373.05 541.182 368.95C540.282 364.85 538.982 361.75 537.282 359.65C538.882 358.05 540.182 355.95 541.182 353.35C542.282 350.65 543.132 347.8 543.732 344.8C544.332 341.7 544.732 338.55 544.932 335.35C545.132 332.15 545.232 329.15 545.232 326.35C545.232 324.05 545.182 322.05 545.082 320.35C544.982 318.65 544.882 317.35 544.782 316.45C542.482 315.65 540.082 314 537.582 311.5C535.182 309 533.382 306.3 532.182 303.4C538.582 304.1 544.632 304.6 550.332 304.9C556.132 305.1 561.582 305.2 566.682 305.2C577.582 305.2 586.382 304.85 593.082 304.15C599.782 303.45 605.082 303.1 608.982 303.1C609.782 303.1 610.482 303.15 611.082 303.25C611.682 303.25 612.232 303.3 612.732 303.4C612.132 304.5 611.482 306.5 610.782 309.4C610.182 312.3 609.582 315.5 608.982 319C608.382 322.4 607.832 325.75 607.332 329.05C606.932 332.25 606.632 334.65 606.432 336.25L605.382 336.7C601.882 334.7 599.332 332.45 597.732 329.95C596.232 327.45 595.082 324.45 594.282 320.95C592.882 319.85 591.132 319.15 589.032 318.85C586.932 318.55 584.282 318.4 581.082 318.4C578.482 318.4 575.982 318.45 573.582 318.55C571.182 318.65 569.282 318.7 567.882 318.7C567.082 322.6 566.482 327.35 566.082 332.95C565.682 338.55 565.382 344.5 565.182 350.8C566.582 351 567.982 351.15 569.382 351.25C570.882 351.25 572.032 351.25 572.832 351.25C574.932 351.25 576.982 350.45 578.982 348.85C581.082 347.15 583.082 345 584.982 342.4C585.482 343.6 585.982 345 586.482 346.6C586.982 348.1 587.532 349.65 588.132 351.25C588.832 352.75 589.582 354.2 590.382 355.6C591.182 357 592.132 358.05 593.232 358.75C592.332 359.65 591.432 360.8 590.532 362.2C589.732 363.6 588.932 365.1 588.132 366.7C587.432 368.3 586.732 369.9 586.032 371.5C585.432 373.1 584.882 374.55 584.382 375.85C583.782 374.75 583.082 373.55 582.282 372.25C581.482 370.95 580.632 369.75 579.732 368.65C578.832 367.55 577.832 366.65 576.732 365.95C575.732 365.15 574.632 364.75 573.432 364.75C572.532 364.75 571.232 364.8 569.532 364.9C567.832 365 566.282 365.2 564.882 365.5V368.2C564.882 374.5 564.932 380.5 565.032 386.2C565.232 391.8 565.532 396.7 565.932 400.9L591.282 403.45C592.682 397.25 595.132 391.75 598.632 386.95C602.232 382.15 606.082 377.5 610.182 373L611.082 373.3C610.782 375.6 610.582 377.9 610.482 380.2C610.382 382.4 610.332 384.55 610.332 386.65C610.332 391.85 610.582 396.55 611.082 400.75C611.582 404.95 612.182 408.1 612.882 410.2C611.182 410.4 609.482 410.7 607.782 411.1C606.182 411.4 604.432 411.95 602.532 412.75C600.632 413.55 598.582 414.65 596.382 416.05C594.282 417.45 591.932 419.25 589.332 421.45C580.932 418.95 572.632 417.05 564.432 415.75C556.232 414.55 548.832 413.95 542.232 413.95C539.032 413.95 536.082 414.45 533.382 415.45L533.232 415ZM722.089 305.65C719.689 307.75 717.039 309.75 714.139 311.65C711.339 313.55 708.389 315.2 705.289 316.6C702.189 318 698.989 319.15 695.689 320.05C692.389 320.85 689.089 321.25 685.789 321.25C684.689 321.25 683.639 321.25 682.639 321.25C681.639 321.25 680.639 321.2 679.639 321.1C679.339 324.1 679.189 327.15 679.189 330.25C679.189 338.75 679.239 347.3 679.339 355.9C679.439 364.5 679.489 373.65 679.489 383.35C679.489 388.55 680.389 393.6 682.189 398.5C684.089 403.3 686.789 406.8 690.289 409C686.089 411 682.539 413.1 679.639 415.3C676.839 417.6 674.339 420.85 672.139 425.05C670.439 420.95 667.789 417.65 664.189 415.15C660.589 412.75 656.539 410.7 652.039 409C654.039 406.1 655.539 402.35 656.539 397.75C657.539 393.05 658.039 388.5 658.039 384.1C658.039 379.8 658.039 376 658.039 372.7C658.039 369.3 658.039 366.15 658.039 363.25C658.139 360.35 658.189 357.55 658.189 354.85C658.289 352.15 658.339 349.25 658.339 346.15C658.439 343.05 658.489 339.65 658.489 335.95C658.489 332.25 658.489 327.9 658.489 322.9C658.489 322.1 658.489 321.35 658.489 320.65C658.489 319.95 658.389 319.2 658.189 318.4C651.589 317.2 645.289 316 639.289 314.8C633.389 313.5 627.989 312.85 623.089 312.85C620.889 312.85 618.539 313.1 616.039 313.6L615.889 313.15C621.289 311.55 625.689 309.6 629.089 307.3C632.589 305 636.089 302.25 639.589 299.05C644.789 300.55 649.189 301.75 652.789 302.65C656.489 303.55 659.889 304.25 662.989 304.75C666.189 305.25 669.289 305.6 672.289 305.8C675.389 305.9 678.889 305.95 682.789 305.95C681.789 304.25 681.089 302.75 680.689 301.45C680.289 300.05 680.039 298.6 679.939 297.1C683.239 299.2 686.289 300.85 689.089 302.05C691.989 303.15 694.739 304 697.339 304.6C699.939 305.1 702.539 305.4 705.139 305.5C707.739 305.6 710.439 305.65 713.239 305.65C714.839 305.65 716.289 305.6 717.589 305.5C718.989 305.4 720.389 305.25 721.789 305.05L722.089 305.65Z" fill="#E10914"/>
</svg>
